<?xml version="1.0" standalone="no"?>
<!DOCTYPE svg PUBLIC "-//W3C//DTD SVG 20010904//EN"
 "http://www.w3.org/TR/2001/REC-SVG-20010904/DTD/svg10.dtd">
<svg version="1.0" xmlns="http://www.w3.org/2000/svg"
 width="595.000000pt" height="595.000000pt" viewBox="0 0 595.000000 595.000000"
 preserveAspectRatio="xMidYMid meet">
<metadata>
Created by potrace 1.14, written by Peter Selinger 2001-2017
</metadata>
<g transform="translate(0.000000,595.000000) scale(0.100000,-0.100000)"
fill="#000000" stroke="none">
<path d="M2917 5664 c-1 -1 -56 -4 -122 -8 -147 -8 -219 -18 -385 -50 -181
-36 -445 -130 -645 -230 -270 -137 -474 -284 -691 -500 -242 -241 -456 -552
-569 -827 -14 -35 -30 -73 -35 -84 -28 -59 -96 -269 -115 -355 -20 -89 -36
-171 -41 -213 -4 -29 -8 -55 -10 -58 -18 -30 -26 -505 -12 -644 39 -375 158
-746 342 -1065 46 -81 110 -184 125 -202 6 -7 35 -44 63 -83 138 -187 337
-387 523 -525 33 -25 62 -47 65 -50 34 -35 301 -190 425 -246 143 -66 153 -70
283 -113 163 -55 341 -97 497 -117 28 -3 59 -8 70 -11 38 -9 450 -11 530 -3
163 17 260 32 360 57 33 8 71 17 85 20 56 10 282 89 385 134 469 204 847 514
1152 944 104 148 208 343 286 535 40 100 90 253 102 307 2 10 12 56 23 103 11
47 23 105 27 130 4 25 9 53 10 62 2 9 7 48 11 85 4 37 8 82 10 98 4 39 4 391
0 430 -2 17 -6 59 -10 95 -19 170 -70 395 -131 570 -191 553 -568 1041 -1050
1359 -131 86 -126 83 -225 136 -292 157 -638 266 -950 299 -26 3 -73 8 -105
12 -55 6 -273 12 -278 8z m715 -718 c42 -4 87 -9 100 -12 13 -2 41 -6 63 -9
22 -3 48 -8 57 -11 9 -2 25 -6 35 -8 109 -21 303 -91 433 -155 319 -159 580
-387 780 -680 135 -199 255 -492 296 -721 29 -162 37 -248 37 -390 -1 -317
-81 -638 -225 -910 -248 -469 -653 -812 -1153 -975 -43 -14 -87 -27 -99 -30
-98 -22 -210 -45 -256 -51 -69 -10 -405 -11 -485 -2 -168 20 -372 72 -492 124
-17 8 -34 14 -38 14 -4 0 -57 25 -118 56 -396 199 -704 506 -901 899 -56 112
-123 288 -141 369 -2 12 -11 48 -19 81 -15 63 -21 100 -30 177 -4 27 -9 69
-12 95 -6 54 -7 288 -1 318 3 11 8 51 12 89 25 244 114 505 259 763 34 61 163
240 210 293 202 221 378 355 626 477 163 80 157 77 250 107 158 51 295 80 435
91 38 4 70 7 72 8 4 5 233 -1 305 -7z"/>
<path d="M2840 4023 c-374 -60 -666 -273 -821 -598 -75 -156 -102 -280 -103
-455 0 -295 104 -549 314 -758 158 -159 392 -273 610 -299 72 -9 221 -8 290 1
215 30 435 141 596 302 144 144 234 303 285 504 27 107 34 309 13 424 -57 326
-257 605 -544 759 -95 50 -228 97 -323 113 -41 7 -284 13 -317 7z"/>
</g>
</svg>
